<svg fill="#3b566e" xmlns="http://www.w3.org/2000/svg" width="23.326" height="20" viewBox="0 0 23.326 20">
  <path id="Shape" d="M8.454,20h0a2.563,2.563,0,0,1-2.563-2.567,6.2,6.2,0,0,0,.584-5.2L1.795,1.538H.77A.769.769,0,1,1,.77,0H2.308a.768.768,0,0,1,.7.462L4.036,2.82a1.535,1.535,0,0,1,.831-.256h16.92A1.538,1.538,0,0,1,23.2,4.707l-3.076,7.178a1.537,1.537,0,0,1-1.415.933H8.475a1.026,1.026,0,0,0,0,2.051H18.746a2.563,2.563,0,1,1-2.38,1.538H10.8A2.564,2.564,0,0,1,8.454,20ZM18.71,16.408a1.026,1.026,0,1,0,1.025,1.025A1.027,1.027,0,0,0,18.71,16.408Zm-10.255,0a1.026,1.026,0,1,0,1.025,1.025A1.027,1.027,0,0,0,8.455,16.408ZM4.866,4.1l3.076,7.178H18.71L21.786,4.1H4.866Z" transform="translate(0 0)"/>
</svg>
