<svg id="dislike-2" xmlns="http://www.w3.org/2000/svg" width="16.501" height="15" viewBox="0 0 16.501 15">
  <path id="Path_10" data-name="Path 10" d="M2,5.5A1.5,1.5,0,0,1,3.5,4H5.75a1.5,1.5,0,0,1,1.5,1.5v8.25a1.5,1.5,0,0,1-1.5,1.5H3.5A1.5,1.5,0,0,1,2,13.75Zm1.5-.75a.75.75,0,0,0-.75.75v8.25a.75.75,0,0,0,.75.75H5.75a.75.75,0,0,0,.75-.75V5.5a.75.75,0,0,0-.75-.75Z" transform="translate(-2 -4)" fill="#de0718" fill-rule="evenodd"/>
  <path id="Path_11" data-name="Path 11" d="M7,10.375A.375.375,0,0,1,7.375,10h.75a.375.375,0,0,1,0,.75h-.75A.375.375,0,0,1,7,10.375Z" transform="translate(-5.125 -7.75)" fill="#de0718" fill-rule="evenodd"/>
  <path id="Path_12" data-name="Path 12" d="M18,7.5A1.5,1.5,0,0,1,19.5,6h6.507a1.5,1.5,0,0,1,1.488,1.31l.993,6.75v0A1.5,1.5,0,0,1,27,15.75H23.739L25.2,18.093a1.41,1.41,0,0,1-2.113,1.818L18.524,16A1.5,1.5,0,0,1,18,14.858Zm1.5-.75a.75.75,0,0,0-.75.75v7.358a.75.75,0,0,0,.262.569l4.567,3.914a.66.66,0,0,0,.989-.851l-1.823-2.917A.375.375,0,0,1,23.063,15H27a.75.75,0,0,0,.745-.839l-.993-6.75v0a.75.75,0,0,0-.744-.657Z" transform="translate(-12 -5.25)" fill="#de0718" fill-rule="evenodd"/>
</svg>
