<svg fill="#f4323f" xmlns="http://www.w3.org/2000/svg" width="19.399" height="20.704" viewBox="0 0 19.399 20.704">
  <path id="Shape" d="M16.336,20.7H3.063a1.533,1.533,0,0,1-1.531-1.531V9.983A1.534,1.534,0,0,1,0,8.452v-2.6a1.535,1.535,0,0,1,1.129-1.47,2,2,0,0,1-.235-.925A2.169,2.169,0,0,1,1.915,1.693l.135-.1A3.32,3.32,0,0,1,4.1.779a7.866,7.866,0,0,1,3.257.985l-.347-.608A.767.767,0,1,1,8.347.4L9.8,2.949l1.859-2.6A.762.762,0,0,1,12.3,0l.061,0a.766.766,0,0,1,.54,1.236l-.189.266a8.008,8.008,0,0,1,2.63-.709c2.2,0,3.19,1.346,3.19,2.68A2,2,0,0,1,18.3,4.4a1.538,1.538,0,0,1,1.1,1.47V8.452a1.533,1.533,0,0,1-1.531,1.531v9.19A1.533,1.533,0,0,1,16.336,20.7Zm-6.1-10.721v9.19h6.126V9.983Zm-7.147,0v9.19H8.7V9.983ZM10.236,5.9V8.452h7.657V5.9Zm-8.679,0V8.452H8.7V5.9ZM4.11,2.326c-1.25,0-1.655.791-1.655,1.174,0,.3.411.868,1.4.868H8.311A5.791,5.791,0,0,0,4.11,2.326Zm11.231-.015a5.792,5.792,0,0,0-4.2,2.042H15.6a1.86,1.86,0,0,0,1.056-.367A.7.7,0,0,0,17,3.474C17,3.078,16.653,2.326,15.341,2.311Z"/>
</svg>
