<svg fill="#3b566e" xmlns="http://www.w3.org/2000/svg" width="21.328" height="20" viewBox="0 0 21.328 20">
  <path id="Shape" d="M18.47,20H2.857a1.466,1.466,0,0,1-1.464-1.463V10.73A1.463,1.463,0,0,1,.515,8.154L9.716.347a1.462,1.462,0,0,1,1.893,0l9.2,7.807a1.466,1.466,0,0,1-.878,2.58v7.8A1.465,1.465,0,0,1,18.47,20ZM9.2,12.686h2.928A1.465,1.465,0,0,1,13.59,14.15v4.391h4.88V9.271h1.395l-9.2-7.807-9.2,7.807h1.4v9.27H7.736V14.15A1.465,1.465,0,0,1,9.2,12.686Zm0,1.463v4.391h2.928V14.15Z" transform="translate(0.001 0)"/>
</svg>
