<svg id="dislike-2" xmlns="http://www.w3.org/2000/svg" width="16.5" height="15" viewBox="0 0 16.5 15">
  <path id="Path_10" data-name="Path 10" d="M2,13.75a1.5,1.5,0,0,0,1.5,1.5H5.75a1.5,1.5,0,0,0,1.5-1.5V5.5A1.5,1.5,0,0,0,5.75,4H3.5A1.5,1.5,0,0,0,2,5.5Zm1.5.75a.75.75,0,0,1-.75-.75V5.5a.75.75,0,0,1,.75-.75H5.75a.75.75,0,0,1,.75.75v8.25a.75.75,0,0,1-.75.75Z" transform="translate(-2 -0.25)" fill="#3abe09" fill-rule="evenodd"/>
  <path id="Path_11" data-name="Path 11" d="M7,10.375a.375.375,0,0,0,.375.375h.75a.375.375,0,0,0,0-.75h-.75A.375.375,0,0,0,7,10.375Z" transform="translate(-5.125 2)" fill="#3abe09" fill-rule="evenodd"/>
  <path id="Path_12" data-name="Path 12" d="M18,18.75a1.5,1.5,0,0,0,1.5,1.5h6.507a1.5,1.5,0,0,0,1.488-1.31l.993-6.75v0A1.5,1.5,0,0,0,27,10.5H23.739L25.2,8.157A1.41,1.41,0,0,0,23.09,6.339l-4.567,3.914A1.5,1.5,0,0,0,18,11.393Zm1.5.75a.75.75,0,0,1-.75-.75V11.393a.75.75,0,0,1,.262-.569l4.567-3.914a.66.66,0,0,1,.989.851l-1.823,2.917a.375.375,0,0,0,.318.574H27a.75.75,0,0,1,.745.839l-.993,6.75v0a.75.75,0,0,1-.744.657Z" transform="translate(-12 -6)" fill="#3abe09" fill-rule="evenodd"/>
</svg>
