<svg fill="#f4323f" xmlns="http://www.w3.org/2000/svg" xmlns:xlink="http://www.w3.org/1999/xlink" width="20" height="20" viewBox="0 0 20 20">
  <defs>
    <clipPath id="clip-path">
      <rect id="Rectangle_26" data-name="Rectangle 26" width="20" height="20" transform="translate(23 386)" stroke="#707070" stroke-width="1"/>
    </clipPath>
  </defs>
  <g id="Mask_Group_4" data-name="Mask Group 4" transform="translate(-23 -386)" clip-path="url(#clip-path)">
    <g id="Location-1" transform="translate(24.218 386)">
      <g id="Group_143" data-name="Group 143" transform="translate(0)">
        <path id="Path_24" data-name="Path 24" d="M12,21.795a2.917,2.917,0,0,1-2.069-.856L5.792,16.8a8.782,8.782,0,1,1,12.419,0l-4.14,4.14A2.917,2.917,0,0,1,12,21.795ZM12,3.742A6.721,6.721,0,0,0,8.242,4.88,6.89,6.89,0,0,0,5.2,9.932,6.813,6.813,0,0,0,7.171,15.42l4.14,4.14a1,1,0,0,0,1.38,0l4.14-4.14A6.815,6.815,0,0,0,18.8,9.932,6.889,6.889,0,0,0,15.761,4.88,6.728,6.728,0,0,0,12,3.742Z" transform="translate(-3.219 -1.795)"/>
      </g>
      <g id="Group_144" data-name="Group 144" transform="translate(4.879 4.223)">
        <path id="Path_25" data-name="Path 25" d="M12.489,14.245a3.9,3.9,0,1,1,3.9-3.9A3.907,3.907,0,0,1,12.489,14.245Zm0-5.854a1.951,1.951,0,1,0,1.951,1.951A1.953,1.953,0,0,0,12.489,8.391Z" transform="translate(-8.586 -6.44)"/>
      </g>
    </g>
  </g>
</svg>
