<svg fill="#f4323f" xmlns="http://www.w3.org/2000/svg" xmlns:xlink="http://www.w3.org/1999/xlink" width="20" height="20" viewBox="0 0 20 20">
  <defs>
    <clipPath id="clip-path">
      <rect id="Rectangle_24" data-name="Rectangle 24" width="20" height="20" transform="translate(23 326)" stroke="#707070" stroke-width="1"/>
    </clipPath>
  </defs>
  <g id="Mask_Group_5" data-name="Mask Group 5" transform="translate(-23 -326)" clip-path="url(#clip-path)">
    <g id="Receipt-2" transform="translate(23.526 326)">
      <g id="Group_145" data-name="Group 145" transform="translate(4.211 4.211)">
        <path id="Path_26" data-name="Path 26" d="M9.158,23.895a1.052,1.052,0,0,1-1.053-1.053V9.158a1.053,1.053,0,1,1,2.105,0V22.842A1.052,1.052,0,0,1,9.158,23.895Z" transform="translate(-8.105 -8.105)"/>
      </g>
      <g id="Group_146" data-name="Group 146" transform="translate(2.105)">
        <path id="Path_27" data-name="Path 27" d="M21.579,23.474a1.052,1.052,0,0,1-1.053-1.053V6.632a1.054,1.054,0,0,0-1.053-1.053H6.842a1.053,1.053,0,0,1,0-2.105H19.474a3.162,3.162,0,0,1,3.158,3.158V22.421A1.052,1.052,0,0,1,21.579,23.474Z" transform="translate(-5.789 -3.474)"/>
      </g>
      <g id="Group_147" data-name="Group 147" transform="translate(4.21 15.788)">
        <path id="Path_28" data-name="Path 28" d="M9.159,25.053a1.053,1.053,0,0,1-.585-1.928l3.158-2.105a1.052,1.052,0,0,1,1.167,0l2.575,1.716,2.574-1.717a1.052,1.052,0,0,1,1.167,0l3.158,2.106A1.053,1.053,0,0,1,21.2,24.876l-2.573-1.717-2.574,1.717a1.052,1.052,0,0,1-1.167,0L12.316,23.16,9.742,24.876A1.048,1.048,0,0,1,9.159,25.053Z" transform="translate(-8.105 -20.841)"/>
      </g>
      <g id="Group_148" data-name="Group 148" transform="translate(8.421 4.211)">
        <rect id="Rectangle_30" data-name="Rectangle 30" width="6.316" height="2.105"/>
      </g>
      <g id="Group_149" data-name="Group 149" transform="translate(8.421 8.421)">
        <rect id="Rectangle_31" data-name="Rectangle 31" width="4.211" height="2.105"/>
      </g>
      <g id="Group_150" data-name="Group 150" transform="translate(0)">
        <path id="Path_29" data-name="Path 29" d="M9.789,12.947H3.474V6.632a3.158,3.158,0,0,1,6.316,0ZM5.579,10.842H7.684V6.632a1.053,1.053,0,0,0-2.105,0Z" transform="translate(-3.474 -3.474)"/>
      </g>
    </g>
  </g>
</svg>
