<svg fill="#3b566e" xmlns="http://www.w3.org/2000/svg" width="19.1" height="19.558" viewBox="0 0 19.1 19.558">
  <g id="Pizza" transform="translate(-0.327 -0.182)">
    <circle id="Oval" cx="0.682" cy="0.682" r="0.682" transform="translate(4.191 14.045)"/>
    <circle id="Oval-2" data-name="Oval" cx="0.682" cy="0.682" r="0.682" transform="translate(7.373 5.864)"/>
    <path id="Shape" d="M1.364,19.558A1.363,1.363,0,0,1,.078,17.74L5.987.923A1.364,1.364,0,0,1,7.277,0a1.379,1.379,0,0,1,.187.013c.378.059,3.8.686,7.591,4.478C18.76,8.2,19.075,11.619,19.1,12.267v.019a1.366,1.366,0,0,1-.909,1.282L1.828,19.477A1.361,1.361,0,0,1,1.364,19.558ZM6.2,4.413,1.364,18.181l13.423-4.85A16.241,16.241,0,0,0,11.337,7.3,12.174,12.174,0,0,0,6.2,4.413ZM7.274,1.358l-.618,1.76A13.445,13.445,0,0,1,12.3,6.332a17.563,17.563,0,0,1,3.773,6.536l1.655-.6a6.727,6.727,0,0,0-.455-2.046A13.253,13.253,0,0,0,14.091,5.45,16.516,16.516,0,0,0,9.319,2.04,8.492,8.492,0,0,0,7.274,1.358Z" transform="translate(0.327 0.182)"/>
    <path id="Shape-2" data-name="Shape" d="M3.182,6.364A3.182,3.182,0,1,1,6.364,3.182,3.186,3.186,0,0,1,3.182,6.364Zm0-5A1.818,1.818,0,1,0,5,3.182,1.82,1.82,0,0,0,3.182,1.364Z" transform="translate(5.782 7.909)"/>
  </g>
</svg>
