<svg xmlns="http://www.w3.org/2000/svg" width="23.552" height="25.657" viewBox="0 0 23.552 25.657">
  <path id="Icon" d="M21.511,25.657H2.041a.973.973,0,0,1-.968-.976V14.1h-.1A.977.977,0,0,1,0,13.127V8.756A.955.955,0,0,1,.976,7.8H22.591a.948.948,0,0,1,.961.955v4.37a.958.958,0,0,1-.961.976h-.105v10.58A.965.965,0,0,1,21.511,25.657ZM14.81,14.1v9.633h5.746V14.1Zm-4.9,0v9.633h3.74V14.1Zm-6.9,0v9.633H8.749V14.1ZM1.93,9.731v2.442H21.623V9.731ZM16.375,6.882h-9.2a3.354,3.354,0,0,1-2.421-1A3.37,3.37,0,0,1,3.74,3.451,3.377,3.377,0,0,1,4.757,1.017a3.448,3.448,0,0,1,5.711,1.4A2.5,2.5,0,0,1,11.829,2a2.6,2.6,0,0,1,1.284.357,3.437,3.437,0,0,1,5.7-1.34,3.447,3.447,0,0,1,0,4.863A3.38,3.38,0,0,1,16.375,6.882Zm0-5.718A2.263,2.263,0,0,0,14.1,3.451l-.014.07a2.52,2.52,0,0,1,.175.933A2.3,2.3,0,0,1,13.9,5.732h2.476a2.2,2.2,0,0,0,1.614-.674,2.271,2.271,0,0,0,.674-1.607,2.3,2.3,0,0,0-.674-1.614A2.274,2.274,0,0,0,16.375,1.165ZM11.829,3.157a1.326,1.326,0,0,0-.919.379,1.278,1.278,0,0,0-.372.919,1.281,1.281,0,0,0,1.291,1.277,1.263,1.263,0,0,0,.877-.344l.029-.028a1.249,1.249,0,0,0,.379-.905,1.2,1.2,0,0,0-.379-.919A1.268,1.268,0,0,0,11.829,3.157ZM7.178,1.165a2.293,2.293,0,0,0-1.614.673A2.263,2.263,0,0,0,4.9,3.451,2.277,2.277,0,0,0,7.178,5.732H9.752a2.442,2.442,0,0,1-.365-1.277,2.673,2.673,0,0,1,.12-.793.744.744,0,0,1-.042-.211A2.321,2.321,0,0,0,8.8,1.838,2.274,2.274,0,0,0,7.178,1.165Z" fill="#f4323f"/>
</svg>
