<svg fill="#f4323f" xmlns="http://www.w3.org/2000/svg" width="22.775" height="22.779" viewBox="0 0 22.775 22.779">
  <path id="Shape" d="M11.307,22.779h0A9.362,9.362,0,0,1,5.563,20.8a1.548,1.548,0,0,1-.574-.978l-.751-4.658A5.976,5.976,0,0,1,0,9.22,6.2,6.2,0,0,1,6.06,3.139,6.221,6.221,0,0,1,11.457,0h.127a6.208,6.208,0,0,1,5.392,3.36,6.2,6.2,0,0,1,5.8,6.319A5.976,5.976,0,0,1,18.3,15.446l-.936,4.628a1.555,1.555,0,0,1-.616.953A9.261,9.261,0,0,1,11.307,22.779Zm-4.92-4.072.14.876a8.628,8.628,0,0,0,4.627,1.646,8.632,8.632,0,0,0,4.69-1.459l.134-.658a11.065,11.065,0,0,1-4.622,1.34A9.717,9.717,0,0,1,6.386,18.707Zm-.205-1.874A.775.775,0,0,1,6.66,17l.032.023A9.011,9.011,0,0,0,11.35,18.9a11.458,11.458,0,0,0,5.031-1.791l.61-3.007L17,14.1a4.47,4.47,0,0,0,4.229-4.441,4.627,4.627,0,0,0-5.285-4.7,4.634,4.634,0,0,0-4.387-3.387H11.46A4.652,4.652,0,0,0,7.033,4.769,4.628,4.628,0,0,0,1.561,9.256,4.472,4.472,0,0,0,5.61,13.868l.476,2.971A.77.77,0,0,1,6.181,16.833Z" transform="translate(0)"/>
</svg>
