<svg xmlns="http://www.w3.org/2000/svg" xmlns:xlink="http://www.w3.org/1999/xlink" width="16" height="18" viewBox="0 0 16 18">
  <defs>
    <clipPath id="clip-path">
      <rect id="Rectangle_20" data-name="Rectangle 20" width="16" height="18" transform="translate(29 222)" fill="#ff9428" stroke="#707070" stroke-width="1"/>
    </clipPath>
  </defs>
  <g id="Mask_Group_1" data-name="Mask Group 1" transform="translate(-29 -222)" clip-path="url(#clip-path)">
    <g id="pizza" transform="translate(27.793 222.366)">
      <path id="Path_13" data-name="Path 13" d="M17.055,9.976a35.528,35.528,0,0,0-3.138-4.389A33.44,33.44,0,0,0,9.661,1.4,1.147,1.147,0,0,0,8.2,1.4l-.866.746a1.147,1.147,0,0,0-.4.878,1.388,1.388,0,0,0,.034.27A35.144,35.144,0,0,0,3.637,8.416,34.644,34.644,0,0,0,1.291,13.94a1.669,1.669,0,0,0,.27,1.549,1.635,1.635,0,0,0,1.308.643h.126a26.257,26.257,0,0,0,6.184-1.216,27.324,27.324,0,0,0,3.689-1.5.575.575,0,0,0-.516-1.027,25.42,25.42,0,0,1-3.528,1.44,25.488,25.488,0,0,1-5.955,1.159.465.465,0,0,1-.425-.184.522.522,0,0,1-.057-.459A32.734,32.734,0,0,1,4.653,9.007a34.266,34.266,0,0,1,3.23-4.991.528.528,0,0,0,.275-.166.574.574,0,0,0-.075-.8l.861-.752a33.078,33.078,0,0,1,4.1,4.016,34.352,34.352,0,0,1,3.023,4.239l-.855.746a35.108,35.108,0,0,0-3.029-4.211,28.868,28.868,0,0,0-2.025-2.174.576.576,0,0,0-.8.826c.711.7,1.383,1.428,1.956,2.1a34.536,34.536,0,0,1,2.92,4.062,1.147,1.147,0,0,0,.8.539.935.935,0,0,0,.178,0,1.147,1.147,0,0,0,.746-.281l.866-.746A1.147,1.147,0,0,0,17.055,9.976Z" fill="#ff9428"/>
      <path id="Path_14" data-name="Path 14" d="M8.031,8.163h.04a.574.574,0,0,0,.046-1.147L7.3,6.953A.575.575,0,1,0,7.223,8.1Z" fill="#ff9428"/>
      <path id="Path_15" data-name="Path 15" d="M9.81,9.345l-.057.815a.574.574,0,0,0,.534.614h.04a.574.574,0,0,0,.574-.534l.057-.809A.575.575,0,0,0,9.81,9.345Z" fill="#ff9428"/>
      <path id="Path_16" data-name="Path 16" d="M6.437,11.359a.574.574,0,0,0,.3.746l1.188.5a.575.575,0,0,0,.442-1.061l-1.188-.493a.574.574,0,0,0-.746.31Z" fill="#ff9428"/>
      <path id="Path_17" data-name="Path 17" d="M4.337,11.789l-.057.832a.574.574,0,0,0,.528.574h.046a.574.574,0,0,0,.574-.534l.063-.809a.577.577,0,1,0-1.153-.063Z" fill="#ff9428"/>
    </g>
  </g>
</svg>
