<svg fill="#f4323f" xmlns="http://www.w3.org/2000/svg" xmlns:xlink="http://www.w3.org/1999/xlink" width="20" height="20" viewBox="0 0 20 20">
  <defs>
    <clipPath id="clip-path">
      <rect id="Rectangle_25" data-name="Rectangle 25" width="20" height="20" transform="translate(23 446)" stroke="#707070" stroke-width="1"/>
    </clipPath>
  </defs>
  <g id="Mask_Group_3" data-name="Mask Group 3" transform="translate(-23 -446)" clip-path="url(#clip-path)">
    <g id="Delivery-2" transform="translate(23 448.381)">
      <g id="Group_135" data-name="Group 135" transform="translate(0.952 8.571)">
        <path id="Path_19" data-name="Path 19" d="M6.476,20.286A3.333,3.333,0,1,1,9.81,16.952,3.337,3.337,0,0,1,6.476,20.286Zm0-4.762A1.429,1.429,0,1,0,7.9,16.952,1.43,1.43,0,0,0,6.476,15.524Z" transform="translate(-3.143 -13.619)"/>
      </g>
      <g id="Group_136" data-name="Group 136" transform="translate(13.333 8.571)">
        <path id="Path_20" data-name="Path 20" d="M20.1,20.286a3.333,3.333,0,1,1,3.333-3.333A3.337,3.337,0,0,1,20.1,20.286Zm0-4.762a1.429,1.429,0,1,0,1.429,1.429A1.43,1.43,0,0,0,20.1,15.524Z" transform="translate(-16.762 -13.619)"/>
      </g>
      <g id="Group_137" data-name="Group 137" transform="translate(5.714 11.429)">
        <rect id="Rectangle_27" data-name="Rectangle 27" width="8.571" height="1.905"/>
      </g>
      <g id="Group_138" data-name="Group 138" transform="translate(0)">
        <path id="Path_21" data-name="Path 21" d="M9.714,11.81H2.1V4.19H9.714ZM4,9.9H7.81V6.1H4Z" transform="translate(-2.095 -4.19)"/>
      </g>
      <g id="Group_139" data-name="Group 139" transform="translate(2.857 7.619)">
        <rect id="Rectangle_28" data-name="Rectangle 28" width="1.905" height="2.857"/>
      </g>
      <g id="Group_140" data-name="Group 140" transform="translate(5.714 4.952)">
        <path id="Path_22" data-name="Path 22" d="M15.365,14.21H13.143a1.907,1.907,0,0,1-1.9-1.9H8.381V10.4h2.857a1.907,1.907,0,0,1,1.9,1.9H14.73l3.555-2.667,1.143,1.524Z" transform="translate(-8.381 -9.638)"/>
      </g>
      <g id="Group_141" data-name="Group 141" transform="translate(13.333 1.905)">
        <path id="Path_23" data-name="Path 23" d="M19.59,14.129,18.1,8.7a1.863,1.863,0,0,1-.072-.514H16.762v-1.9H19.93v1.9l1.5,5.432Z" transform="translate(-16.762 -6.286)"/>
      </g>
      <g id="Group_142" data-name="Group 142" transform="translate(16.19 4.762)">
        <rect id="Rectangle_29" data-name="Rectangle 29" width="1.905" height="1.905"/>
      </g>
    </g>
  </g>
</svg>
