<svg fill="#3b566e" xmlns="http://www.w3.org/2000/svg" width="19.573" height="19.555" viewBox="0 0 19.573 19.555">
  <g id="Settings-2" transform="translate(-0.311 -0.178)">
    <path id="Shape" d="M3.556,7.111A3.555,3.555,0,1,1,7.111,3.556,3.559,3.559,0,0,1,3.556,7.111Zm0-5.778A2.223,2.223,0,1,0,5.778,3.556,2.226,2.226,0,0,0,3.556,1.333Z" transform="translate(6.542 6.4)"/>
    <path id="Shape-2" data-name="Shape" d="M11.111,19.555H8.445a1.335,1.335,0,0,1-1.334-1.333V16.844c-.152-.06-.3-.121-.445-.186l-.973.973a1.333,1.333,0,0,1-1.885,0L1.924,15.746a1.337,1.337,0,0,1,0-1.885l.974-.973c-.067-.142-.13-.292-.187-.445H1.333A1.334,1.334,0,0,1,0,11.111V8.445A1.335,1.335,0,0,1,1.333,7.111H2.711c.061-.155.124-.3.187-.445l-.965-.973a1.335,1.335,0,0,1,0-1.885L3.818,1.924a1.335,1.335,0,0,1,1.885,0l.973.974c.147-.069.3-.132.445-.187V1.333A1.335,1.335,0,0,1,8.454,0H11.12a1.334,1.334,0,0,1,1.333,1.333V2.711c.164.064.309.126.445.187l.973-.974a1.335,1.335,0,0,1,1.885,0L17.64,3.809a1.335,1.335,0,0,1,0,1.885l-.973.973c.07.15.132.3.186.445h1.385a1.346,1.346,0,0,1,.942.388,1.324,1.324,0,0,1,.393.946v2.667a1.334,1.334,0,0,1-1.333,1.333H16.862c-.064.164-.126.309-.187.445l.956.973a1.335,1.335,0,0,1,0,1.885l-1.885,1.885a1.333,1.333,0,0,1-1.885,0l-.973-.973c-.145.068-.3.13-.445.186v1.378A1.334,1.334,0,0,1,11.111,19.555ZM6.418,15.013h0a6.169,6.169,0,0,0,2.017.84v2.369H11.1V15.854a6.168,6.168,0,0,0,2.018-.841l1.693,1.676L16.7,14.8l-1.676-1.675a6.168,6.168,0,0,0,.841-2.018h2.369V8.445H15.863a6.168,6.168,0,0,0-.841-2.018L16.7,4.751,14.813,2.867,13.138,4.542A6.151,6.151,0,0,0,11.12,3.7V1.333H8.454V3.7a6.146,6.146,0,0,0-2.018.84L4.76,2.867,2.876,4.751,4.551,6.427a6.168,6.168,0,0,0-.841,2.018H1.342v2.667H3.694a6.146,6.146,0,0,0,.84,2.018L2.858,14.8l1.885,1.885,1.675-1.675Z" transform="translate(0.311 0.178)"/>
  </g>
</svg>
