<svg xmlns="http://www.w3.org/2000/svg" width="100" height="16" viewBox="0 0 100 16">
  <g id="Group_154" data-name="Group 154" transform="translate(-155 -364)">
    <g id="Star" transform="translate(153 361)">
      <path id="Path_30" data-name="Path 30" d="M14.8,19a.776.776,0,0,1-.358-.088L10,16.573,5.557,18.911a.768.768,0,0,1-.887-.122.871.871,0,0,1-.225-.912l1.506-4.493L2.309,10.4a.87.87,0,0,1-.274-.91.81.81,0,0,1,.709-.6l4.845-.36L9.244,3.563A.807.807,0,0,1,10,3h0a.8.8,0,0,1,.754.562l1.668,4.975,4.834.36a.81.81,0,0,1,.709.6.869.869,0,0,1-.274.91l-3.643,2.983,1.506,4.493a.873.873,0,0,1-.225.912A.782.782,0,0,1,14.8,19ZM10,14.789a.769.769,0,0,1,.358.088l3.029,1.594-1.039-3.1a.869.869,0,0,1,.263-.946l2.45-2.006-3.274-.244a.806.806,0,0,1-.7-.56L10,6.379,8.925,9.614a.807.807,0,0,1-.7.562l-3.286.244,2.45,2.005a.869.869,0,0,1,.263.946l-1.039,3.1,3.029-1.594A.793.793,0,0,1,10,14.789Z" fill="#ff9428"/>
    </g>
    <g id="Star-2" data-name="Star" transform="translate(156 361)">
      <path id="Path_30-2" data-name="Path 30" d="M14.8,19a.776.776,0,0,1-.358-.088L10,16.573,5.557,18.911a.768.768,0,0,1-.887-.122.871.871,0,0,1-.225-.912l1.506-4.493L2.309,10.4a.87.87,0,0,1-.274-.91.81.81,0,0,1,.709-.6l4.845-.36L9.244,3.563A.807.807,0,0,1,10,3h0a.8.8,0,0,1,.754.562l1.668,4.975,4.834.36a.81.81,0,0,1,.709.6.869.869,0,0,1-.274.91l-3.643,2.983,1.506,4.493a.873.873,0,0,1-.225.912A.782.782,0,0,1,14.8,19ZM10,14.789a.769.769,0,0,1,.358.088l3.029,1.594-1.039-3.1a.869.869,0,0,1,.263-.946l2.45-2.006-3.274-.244a.806.806,0,0,1-.7-.56L10,6.379,8.925,9.614a.807.807,0,0,1-.7.562l-3.286.244,2.45,2.005a.869.869,0,0,1,.263.946l-1.039,3.1,3.029-1.594A.793.793,0,0,1,10,14.789Z" transform="translate(18)" fill="#ff9428"/>
    </g>
    <g id="Star-3" data-name="Star" transform="translate(195 361)">
      <path id="Path_30-3" data-name="Path 30" d="M14.8,19a.776.776,0,0,1-.358-.088L10,16.573,5.557,18.911a.768.768,0,0,1-.887-.122.871.871,0,0,1-.225-.912l1.506-4.493L2.309,10.4a.87.87,0,0,1-.274-.91.81.81,0,0,1,.709-.6l4.845-.36L9.244,3.563A.807.807,0,0,1,10,3h0a.8.8,0,0,1,.754.562l1.668,4.975,4.834.36a.81.81,0,0,1,.709.6.869.869,0,0,1-.274.91l-3.643,2.983,1.506,4.493a.873.873,0,0,1-.225.912A.782.782,0,0,1,14.8,19ZM10,14.789a.769.769,0,0,1,.358.088l3.029,1.594-1.039-3.1a.869.869,0,0,1,.263-.946l2.45-2.006-3.274-.244a.806.806,0,0,1-.7-.56L10,6.379,8.925,9.614a.807.807,0,0,1-.7.562l-3.286.244,2.45,2.005a.869.869,0,0,1,.263.946l-1.039,3.1,3.029-1.594A.793.793,0,0,1,10,14.789Z" fill="#ff9428"/>
    </g>
    <g id="Star-4" data-name="Star" transform="translate(198 361)">
      <path id="Path_30-4" data-name="Path 30" d="M14.8,19a.776.776,0,0,1-.358-.088L10,16.573,5.557,18.911a.768.768,0,0,1-.887-.122.871.871,0,0,1-.225-.912l1.506-4.493L2.309,10.4a.87.87,0,0,1-.274-.91.81.81,0,0,1,.709-.6l4.845-.36L9.244,3.563A.807.807,0,0,1,10,3h0a.8.8,0,0,1,.754.562l1.668,4.975,4.834.36a.81.81,0,0,1,.709.6.869.869,0,0,1-.274.91l-3.643,2.983,1.506,4.493a.873.873,0,0,1-.225.912A.782.782,0,0,1,14.8,19ZM10,14.789a.769.769,0,0,1,.358.088l3.029,1.594-1.039-3.1a.869.869,0,0,1,.263-.946l2.45-2.006-3.274-.244a.806.806,0,0,1-.7-.56L10,6.379,8.925,9.614a.807.807,0,0,1-.7.562l-3.286.244,2.45,2.005a.869.869,0,0,1,.263.946l-1.039,3.1,3.029-1.594A.793.793,0,0,1,10,14.789Z" transform="translate(18)" fill="#ff9428"/>
    </g>
    <g id="Star-5" data-name="Star" transform="translate(219 361)">
      <path id="Path_30-5" data-name="Path 30" d="M14.8,19a.776.776,0,0,1-.358-.088L10,16.573,5.557,18.911a.768.768,0,0,1-.887-.122.871.871,0,0,1-.225-.912l1.506-4.493L2.309,10.4a.87.87,0,0,1-.274-.91.81.81,0,0,1,.709-.6l4.845-.36L9.244,3.563A.807.807,0,0,1,10,3h0a.8.8,0,0,1,.754.562l1.668,4.975,4.834.36a.81.81,0,0,1,.709.6.869.869,0,0,1-.274.91l-3.643,2.983,1.506,4.493a.873.873,0,0,1-.225.912A.782.782,0,0,1,14.8,19ZM10,14.789a.769.769,0,0,1,.358.088l3.029,1.594-1.039-3.1a.869.869,0,0,1,.263-.946l2.45-2.006-3.274-.244a.806.806,0,0,1-.7-.56L10,6.379,8.925,9.614a.807.807,0,0,1-.7.562l-3.286.244,2.45,2.005a.869.869,0,0,1,.263.946l-1.039,3.1,3.029-1.594A.793.793,0,0,1,10,14.789Z" transform="translate(18)" fill="#ff9428"/>
    </g>
  </g>
</svg>
