<svg fill="#f4323f" xmlns="http://www.w3.org/2000/svg" width="13.511" height="15.629" viewBox="0 0 13.511 15.629">
  <path id="Shape" d="M6.755,15.629a1.069,1.069,0,0,1-.523-.137L4.167,14.329A8.19,8.19,0,0,1,0,7.218V2.489C0,2.251.094,1.43,1.3.825A13.113,13.113,0,0,1,6.755,0c5.361,0,6.514,1.4,6.724,2.229a1.092,1.092,0,0,1,.031.259V7.218a8.19,8.19,0,0,1-4.167,7.111L7.278,15.492A1.069,1.069,0,0,1,6.755,15.629Zm0-14.562c-2.939,0-4.329.387-4.978.711-.7.351-.711.707-.711.711V7.218a7.121,7.121,0,0,0,3.623,6.2l2.065,1.163L8.821,13.4a7.121,7.121,0,0,0,3.623-6.2V2.489s-.094-.358-.844-.711A11.807,11.807,0,0,0,6.755,1.067Z" transform="translate(0 0)"/>
</svg>
